<svg viewBox="0 0 16 16" xmlns="http://www.w3.org/2000/svg" xmlns:xlink="http://www.w3.org/1999/xlink" width="16.000000" height="16.000000" fill="none">
	<rect id="Icon / LockOutlined" width="16.000000" height="16.000000" x="0.000000" y="0.000000" fill="rgb(255,255,255)" fill-opacity="0" />
	<path id="Vector" d="M13 7.25L11.9375 7.25L11.9375 3.75C11.9375 2.64531 11.0422 1.75 9.9375 1.75L6.0625 1.75C4.95781 1.75 4.0625 2.64531 4.0625 3.75L4.0625 7.25L3 7.25C2.72344 7.25 2.5 7.47344 2.5 7.75L2.5 13.75C2.5 14.0266 2.72344 14.25 3 14.25L13 14.25C13.2766 14.25 13.5 14.0266 13.5 13.75L13.5 7.75C13.5 7.47344 13.2766 7.25 13 7.25ZM5.1875 3.75C5.1875 3.26719 5.57969 2.875 6.0625 2.875L9.9375 2.875C10.4203 2.875 10.8125 3.26719 10.8125 3.75L10.8125 7.25L5.1875 7.25L5.1875 3.75ZM12.375 13.125L3.625 13.125L3.625 8.375L12.375 8.375L12.375 13.125ZM7.5625 10.9531L7.5625 11.7812C7.5625 11.85 7.61875 11.9062 7.6875 11.9062L8.3125 11.9062C8.38125 11.9062 8.4375 11.85 8.4375 11.7812L8.4375 10.9531C8.56648 10.8605 8.66275 10.7294 8.71245 10.5786C8.76216 10.4278 8.76273 10.2651 8.71409 10.114C8.66545 9.96281 8.57011 9.831 8.44179 9.73749C8.31346 9.64398 8.15878 9.5936 8 9.5936C7.84122 9.5936 7.68654 9.64398 7.55821 9.73749C7.42989 9.831 7.33455 9.96281 7.28591 10.114C7.23727 10.2651 7.23784 10.4278 7.28755 10.5786C7.33725 10.7294 7.43352 10.8605 7.5625 10.9531Z" fill="rgb(0,0,0)" fill-opacity="0.449999988" fill-rule="nonzero" />
</svg>
